<?xml version="1.0" encoding="utf-8"?>
<!-- Generator: Adobe Illustrator 27.5.0, SVG Export Plug-In . SVG Version: 6.00 Build 0)  -->
<svg version="1.1" xmlns="http://www.w3.org/2000/svg" xmlns:xlink="http://www.w3.org/1999/xlink" x="0px" y="0px"
	 viewBox="0 0 750 500" style="enable-background:new 0 0 750 500;" xml:space="preserve">
<g id="BACKGROUND">
	<rect style="fill:#191919;" width="750" height="500"/>
</g>
<g id="OBJECTS">
	<g>
		<defs>
			<rect id="SVGID_1_" width="750" height="500"/>
		</defs>
		<clipPath id="SVGID_00000016762515359857619650000012119213464867548602_">
			<use xlink:href="#SVGID_1_"  style="overflow:visible;"/>
		</clipPath>
		<g style="clip-path:url(#SVGID_00000016762515359857619650000012119213464867548602_);">
			<g>
				<path style="fill:#CBEAA6;" d="M316.942,111.804c-13.576-9.553-27.615-19.431-38.912-31.824
					c-17.393-19.079-28.491-45.636-39.224-71.319c-2.053-4.913-4.117-9.844-6.23-14.745h-1.089
					c2.172,5.028,4.289,10.089,6.396,15.131c10.766,25.761,21.898,52.4,39.407,71.607c11.371,12.474,25.455,22.384,39.075,31.968
					c13.888,9.772,28.249,19.877,39.674,32.678c29.193,32.706,36.422,83.191,17.577,122.782
					c-18.113,40.591-58.802,64.45-106.234,62.262c-47.465-2.19-85.841-29.71-100.145-71.805
					c-7.378-24.812-8.489-50.118-9.563-74.591c-2.076-47.3-4.037-91.979-48.324-131.077C88.919,31.708,76.592,12.433,72.023-6.084
					h-0.931c0.546,2.264,1.191,4.537,1.961,6.821c5.571,16.524,17.214,33.809,35.594,52.842l0.029,0.028
					c43.984,38.82,45.936,83.297,48.002,130.385c1.077,24.534,2.19,49.902,9.608,74.851c7.368,21.684,21.261,39.918,40.176,52.732
					c17.574,11.906,38.624,18.741,60.876,19.768c1.945,0.09,3.881,0.134,5.814,0.134c20.166,0,39.61-4.865,56.555-14.195
					c19.993-11.008,35.492-27.88,44.819-48.78c19.008-39.933,11.713-90.869-17.739-123.867
					C345.285,131.748,330.876,121.609,316.942,111.804z"/>
			</g>
			<g>
				<path style="fill:#FFFFFF;" d="M306.604,112.891c-11.737-8.267-23.874-16.815-33.709-27.461
					c-5.151-5.574-9.905-12.05-14.533-19.799c-7.917-13.26-14.334-28.583-20.54-43.402c-3.986-9.517-8.011-19.114-12.482-28.313
					h-1.116c4.549,9.311,8.633,19.046,12.675,28.699c6.22,14.851,12.65,30.207,20.604,43.528c4.665,7.809,9.459,14.34,14.657,19.965
					c9.906,10.724,22.087,19.303,33.867,27.601c12.195,8.589,24.805,17.471,34.84,28.714c25.419,28.395,31.768,72.92,15.439,108.277
					c-15.873,34.37-49.425,55.161-88.39,55.159c-1.747,0-3.51-0.042-5.277-0.126c-41.98-1.941-76.651-26.836-88.327-63.422
					c-7.137-22.365-8.349-45.044-9.52-66.978c-2.178-40.763-4.235-79.266-41.589-114.58C99.945,38.764,88.65,15.847,89.723-6.084
					h-1.022c-1.076,22.196,10.33,45.36,33.817,67.564c37.063,35.04,39.11,73.349,41.277,113.907
					c1.175,21.996,2.391,44.741,9.566,67.228c11.804,36.989,46.83,62.157,89.232,64.117c1.788,0.086,3.562,0.128,5.329,0.128
					c39.353,0,73.254-21.012,89.293-55.74c16.491-35.708,10.075-80.681-15.602-109.363
					C331.503,130.429,318.845,121.513,306.604,112.891z"/>
			</g>
			<g>
				<path style="fill:#FFFFFF;" d="M326.441,138.878c-8.723-9.772-19.634-17.467-30.187-24.909
					c-9.895-6.978-20.127-14.194-28.494-23.091c-4.471-4.75-8.584-10.219-12.576-16.718c-7.111-11.593-12.83-25.076-18.36-38.115
					c-6.195-14.604-12.495-29.44-20.923-42.129h-1.214c8.578,12.745,14.953,27.751,21.217,42.52
					c5.544,13.073,11.278,26.59,18.428,38.247c4.027,6.558,8.182,12.08,12.7,16.881c8.437,8.97,18.711,16.216,28.646,23.223
					c10.506,7.409,21.371,15.071,30.018,24.759c22.037,24.522,27.505,63.085,13.299,93.778
					c-14.463,31.246-45.519,49.539-81.083,47.8c-36.323-1.681-66.359-23.282-76.52-55.032c-6.205-19.39-7.217-39.103-8.196-58.167
					c-1.818-35.42-3.536-68.876-36.141-99.288c-25.643-23.92-33.844-51.43-23.235-74.719h-1.094
					c-10.528,23.593-2.201,51.34,23.647,75.451c32.308,30.136,34.016,63.396,35.824,98.608c0.982,19.128,1.997,38.908,8.243,58.421
					c10.289,32.152,40.68,54.026,77.424,55.725c1.592,0.079,3.174,0.118,4.747,0.118c33.968,0,63.302-18.27,77.292-48.496
					c6.931-14.973,9.484-32.501,7.191-49.355C344.729,167.02,337.588,151.282,326.441,138.878z"/>
			</g>
			<g>
				<path style="fill:#CBEAA6;" d="M285.943,115.1c-8.066-5.707-16.406-11.607-23.319-18.774c-3.797-3.934-7.27-8.395-10.617-13.639
					c-6.337-9.944-11.372-21.625-16.242-32.921c-9.359-21.711-19.006-44.068-38.465-55.85h-1.978
					c20.178,11.376,30,34.149,39.525,56.246c4.885,11.332,9.937,23.05,16.317,33.063c3.383,5.301,6.897,9.814,10.741,13.796
					c6.978,7.234,15.358,13.163,23.461,18.896c8.795,6.222,17.889,12.656,25.158,20.752c18.912,21.063,23.397,52.923,11.159,79.279
					c-12.302,26.495-38.557,42.024-68.498,40.566c-30.695-1.511-56.097-19.818-64.714-46.641
					c-5.274-16.416-6.092-33.159-6.883-49.351c-1.469-30.067-2.856-58.466-30.681-84.003
					c-14.629-13.427-22.653-29.256-22.593-44.572c0.046-11.906,5.06-22.706,14.499-31.233c2.733-2.469,5.955-4.809,9.536-6.796
					h-2.083c-2.831,1.713-5.554,3.733-8.123,6.054c-9.653,8.721-14.781,19.777-14.829,31.972
					c-0.061,15.601,8.078,31.693,22.918,45.312c27.522,25.26,28.899,53.46,30.358,83.316c0.794,16.256,1.615,33.066,6.93,49.608
					c8.746,27.223,34.502,45.803,65.618,47.334c1.325,0.065,2.639,0.098,3.949,0.098c28.707,0,53.573-15.542,65.505-41.241
					c12.403-26.714,7.854-59.012-11.322-80.368C303.924,127.82,294.783,121.354,285.943,115.1z"/>
			</g>
			<g>
				<path style="fill:#FFFFFF;" d="M251.697,232.984c-1.091,0-2.188-0.028-3.291-0.084c-25.073-1.279-46.697-16.928-53.81-38.941
					c-4.385-13.571-5.019-27.407-5.632-40.787c-1.122-24.485-2.182-47.612-24.877-68.031c-13.049-11.74-19.711-26.334-18.278-40.039
					c1.132-10.818,7.365-20.021,17.552-25.911c12.429-7.185,25.778-8.189,36.629-2.756c17.938,8.983,26.406,28.236,34.595,46.855
					c4.236,9.63,8.616,19.588,14.24,27.92c2.665,3.938,5.578,7.492,8.66,10.56c5.426,5.412,11.845,9.967,18.052,14.372
					c7.168,5.086,14.58,10.346,20.557,16.978c15.728,17.455,19.418,43.926,9.182,65.872
					C295.394,220.179,275.061,232.984,251.697,232.984z M163.611,19.624l0.251,0.433c-9.903,5.725-15.961,14.657-17.058,25.149
					c-1.399,13.384,5.144,27.668,17.952,39.192c23.006,20.698,24.075,44.028,25.207,68.729c0.61,13.314,1.241,27.081,5.585,40.525
					c6.986,21.621,28.249,36.993,52.909,38.25c24.325,1.247,45.746-11.532,55.914-33.333c10.069-21.586,6.445-47.62-9.018-64.78
					c-5.903-6.55-13.269-11.777-20.393-16.832c-6.241-4.428-12.694-9.008-18.18-14.479c-3.127-3.114-6.082-6.717-8.783-10.709
					c-5.675-8.407-10.073-18.407-14.327-28.078c-8.118-18.456-16.512-37.541-34.127-46.363c-10.545-5.28-23.549-4.286-35.681,2.728
					L163.611,19.624z"/>
			</g>
			<g>
				<path style="fill:#FFFFFF;" d="M246.295,208.36c-0.868,0-1.742-0.023-2.62-0.07c-19.505-1.047-36.384-13.324-42.001-30.549
					c-3.458-10.603-3.914-21.457-4.355-31.953c-0.803-19.094-1.562-37.129-19.374-52.757
					c-11.667-10.237-16.991-24.067-13.893-36.092c2.43-9.432,9.933-16.182,20.587-18.519c10.047-2.205,19.211-0.57,26.498,4.728
					c10.6,7.706,16.391,20.639,21.991,33.147c3.658,8.171,7.441,16.62,12.51,23.432c2.013,2.699,4.268,5.217,6.703,7.485
					c3.892,3.632,8.349,6.805,12.659,9.874c5.544,3.947,11.275,8.028,15.921,13.156c12.474,13.769,15.238,33.935,7.042,51.376
					C280.127,198.291,264.321,208.36,246.295,208.36z M184.747,38.908l0.107,0.488c-10.423,2.287-17.467,8.606-19.833,17.792
					c-3.003,11.658,2.202,25.103,13.584,35.09c18.133,15.911,18.901,34.153,19.713,53.467c0.438,10.429,0.892,21.213,4.308,31.686
					c5.49,16.835,22.008,28.835,41.104,29.86c18.688,1.01,35.292-8.997,43.329-26.1c8.024-17.076,5.324-36.811-6.878-50.279
					c-4.573-5.048-10.26-9.097-15.76-13.013c-4.336-3.087-8.821-6.28-12.761-9.957c-2.477-2.309-4.773-4.872-6.823-7.62
					c-5.135-6.9-8.94-15.4-12.621-23.62c-5.546-12.388-11.281-25.197-21.665-32.747c-8.907-6.473-18.89-6.053-25.696-4.56
					L184.747,38.908z"/>
			</g>
			<g>
				<path style="fill:#CBEAA6;" d="M241.195,183.758c-0.748,0-1.5-0.026-2.257-0.08c-13.206-0.612-25.622-9.717-30.18-22.14
					c-2.217-7.453-2.548-14.985-2.867-22.27c-0.608-13.862-1.183-26.956-14.086-38.349c-11.478-9.386-13.454-23.315-9.474-32.226
					c3.839-8.596,12.673-12.703,23.627-10.997c14.188,3.816,19.646,16.877,24.925,29.509c3.166,7.576,6.44,15.411,11.549,21.014
					c3.318,3.641,7.458,6.554,11.462,9.371c4.142,2.915,8.424,5.928,11.856,9.773c9.176,9.795,11.062,23.918,4.913,36.848
					C264.854,176.427,253.702,183.757,241.195,183.758z M201.05,58.296c-8.304,0-14.676,3.796-17.806,10.806
					c-3.826,8.565-1.894,21.981,9.201,31.049l0.015,0.012c13.229,11.676,13.813,24.978,14.431,39.061
					c0.317,7.225,0.645,14.695,2.817,22c4.414,12.026,16.462,20.862,29.289,21.457c13.009,0.909,24.788-6.332,30.764-18.897
					c5.969-12.55,4.149-26.246-4.748-35.743c-3.363-3.768-7.598-6.748-11.694-9.63c-4.048-2.848-8.233-5.793-11.626-9.515
					c-5.225-5.732-8.533-13.647-11.732-21.303c-5.186-12.409-10.548-25.24-24.209-28.917
					C204.126,58.421,202.556,58.296,201.05,58.296z"/>
			</g>
		</g>
		<g style="clip-path:url(#SVGID_00000016762515359857619650000012119213464867548602_);">
			<g>
				<path style="fill:#FFFFFF;" d="M252.638,506.632c35.143-15.019,70.33-31.225,96.359-55.187
					c18.796-17.303,33.7-38.704,48.113-59.401c14.714-21.129,29.929-42.977,49.264-60.404
					c31.236-28.154,73.312-43.046,115.255-43.046c24.413,0,48.783,5.047,70.938,15.461c61.774,27.206,98.282,88.842,95.275,160.854
					c-0.607,14.528-2.805,28.49-6.412,41.723h0.925c3.688-13.399,5.888-27.377,6.486-41.682
					c1.405-33.665-6.101-66.281-21.708-94.319c-16.8-30.185-42.446-53.523-74.153-67.486
					c-60.558-28.465-137.567-17.053-187.276,27.753c-19.42,17.504-34.669,39.4-49.415,60.575
					c-14.382,20.652-29.254,42.009-47.969,59.236c-26.44,24.341-62.452,40.678-98.23,55.924H252.638z"/>
			</g>
			<g>
				<path style="fill:#CBEAA6;" d="M275.141,506.632c28.143-11.923,55.796-25.038,76.565-43.633
					c16.746-15.008,30.137-33.555,43.087-51.491c12.813-17.745,26.062-36.095,42.525-50.946
					c27.863-25.138,66.086-38.611,104.646-38.611c18.723,0,37.527,3.178,55.259,9.738c58.754,21.74,96.273,78.224,93.363,140.552
					c-0.559,11.961-2.299,23.463-5.11,34.391h1.03c2.789-10.92,4.521-22.404,5.079-34.344
					c2.932-62.766-34.85-119.645-94.014-141.536c-26.538-9.82-55.651-12.416-84.19-7.502c-29.263,5.036-55.797,17.682-76.732,36.57
					c-16.543,14.923-29.823,33.316-42.666,51.104c-12.919,17.893-26.278,36.395-42.944,51.332
					c-21.191,18.971-49.654,32.238-78.469,44.377H275.141z"/>
			</g>
			<g>
				<path style="fill:#FFFFFF;" d="M299.641,506.632c20.117-8.934,39.481-18.896,54.773-32.076
					c14.744-12.738,26.663-28.462,38.189-43.668c10.867-14.336,22.104-29.159,35.661-41.402
					c25.293-22.848,59.542-35.157,94.896-35.157c12.892,0,25.936,1.639,38.738,4.999c55.861,14.663,94.314,65.233,91.432,120.244
					c-0.493,9.413-1.802,18.448-3.854,27.06h1.033c2.032-8.6,3.327-17.618,3.819-27.008c1.468-28.003-7.023-54.656-24.554-77.078
					c-16.771-21.449-40.786-37.142-67.622-44.185c-48.236-12.664-99.796-1.02-134.559,30.383
					c-13.627,12.306-24.893,27.168-35.788,41.54c-11.495,15.165-23.382,30.847-38.046,43.516
					c-15.713,13.542-35.796,23.696-56.578,32.833H299.641z"/>
			</g>
			<g>
				<path style="fill:#CBEAA6;" d="M323.393,506.632c12.275-5.923,23.912-12.51,33.726-20.515
					c12.844-10.522,23.378-23.493,33.565-36.037c8.828-10.869,17.955-22.108,28.527-31.671h0.001
					c23.358-21.138,54.965-32.596,88.75-32.596c6.15,0,12.375,0.381,18.632,1.15c46.547,5.73,92.744,44.678,89.481,99.939
					c-0.404,6.845-1.307,13.423-2.656,19.729h1.026c1.333-6.291,2.225-12.849,2.628-19.671c1.501-25.415-7.58-49.803-25.569-68.672
					c-16.71-17.528-40.324-29.308-64.787-32.318c-40.925-5.035-80.351,6.517-108.176,31.695
					c-10.63,9.614-19.782,20.884-28.634,31.782c-10.155,12.506-20.657,25.437-33.421,35.894c-10.24,8.352-22.507,15.16-35.418,21.29
					H323.393z"/>
			</g>
			<g>
				<path style="fill:#FFFFFF;" d="M345.819,506.632c4.945-2.758,9.663-5.71,13.998-8.952c11.23-8.453,20.619-18.868,29.698-28.941
					c6.527-7.241,13.276-14.729,20.643-21.407c26.89-24.398,58.978-31.271,81.161-32.741c1.884-0.125,3.765-0.187,5.647-0.187
					c22.837,0,45.36,9.092,61.163,24.903c10.417,10.424,22.464,28.415,20.69,54.926c-0.286,4.281-0.789,8.411-1.49,12.399h1.02
					c0.689-3.969,1.183-8.078,1.468-12.333c1.798-26.885-10.417-45.129-20.982-55.699c-17.307-17.315-42.563-26.664-67.584-25.008
					c-22.342,1.48-54.664,8.407-81.767,32.999c-7.403,6.712-14.17,14.219-20.714,21.479c-9.047,10.037-18.403,20.416-29.555,28.811
					c-4.754,3.555-9.978,6.766-15.467,9.752H345.819z"/>
			</g>
			<g>
				<path style="fill:#FFFFFF;" d="M366.385,506.632c9.53-6.692,17.886-14.578,25.996-22.238c2.842-2.685,5.78-5.46,8.724-8.14
					v-0.001c17.372-15.835,35.869-27.297,54.977-34.067c6.962-2.467,14.373-3.667,21.814-3.667c14.816,0,29.753,4.757,41.492,13.74
					c15.804,12.094,23.679,29.604,22.176,49.304c-0.132,1.729-0.313,3.411-0.519,5.069h1.009c0.2-1.634,0.378-3.291,0.507-4.993
					c1.529-20.049-6.485-37.867-22.565-50.174c-18.173-13.906-42.792-17.824-64.249-10.223
					c-19.234,6.815-37.845,18.347-55.316,34.272v-0.001c-2.949,2.686-5.892,5.466-8.737,8.153
					c-8.422,7.956-17.125,16.142-27.098,22.965H366.385z"/>
			</g>
			<g>
				<path style="fill:#CBEAA6;" d="M390.396,506.632c0.564-0.474,1.117-0.96,1.656-1.456c5.593-5.148,10.016-11.501,14.294-17.644
					c4.346-6.239,8.839-12.691,14.542-17.831c8.845-8.368,20.118-12.681,31.94-12.681c7.431,0,15.078,1.704,22.472,5.177
					c18.452,8.666,29.433,25.556,29.097,44.434h0.999c0.331-19.283-10.865-36.507-29.67-45.34
					c-19.541-9.177-40.816-6.232-55.517,7.675c-5.779,5.208-10.307,11.708-14.684,17.994c-4.247,6.099-8.639,12.404-14.151,17.479
					c-0.824,0.759-1.689,1.484-2.573,2.192H390.396z"/>
			</g>
		</g>
		<g style="clip-path:url(#SVGID_00000016762515359857619650000012119213464867548602_);">
			<g>
				<g>
					<path style="fill:#FFFFFF;" d="M563.83,266.358c-21.305,0.001-45.028-4.973-68.758-19.596
						c-39.913-22.999-58.216-51.6-54.386-85.002c2.691-23.458,16.786-47.034,39.692-66.384
						c16.97-14.337,36.818-25.237,56.014-35.778c3.616-1.986,7.23-3.971,10.825-5.978c3.211-1.792,6.418-3.607,9.629-5.424
						c20.972-11.87,42.657-24.144,66.275-30.2c30.893-7.922,60.808-2.746,80.014,13.852c22.565,19.499,31.113,54.856,22.865,94.58
						c-11.7,56.348-50.137,104.854-100.312,126.589C611.303,259.248,589.297,266.357,563.83,266.358z M651.154,15.354
						c-8.978,0-18.331,1.187-27.784,3.611c-23.489,6.023-45.116,18.264-66.031,30.101c-3.212,1.818-6.421,3.634-9.633,5.427
						c-3.598,2.008-7.214,3.994-10.832,5.981c-19.152,10.518-38.956,21.393-55.851,35.666c-22.71,19.186-36.683,42.53-39.343,65.734
						c-3.78,32.969,14.355,61.241,53.904,84.029c51.72,31.874,103.465,17.562,129.707,6.195
						c49.881-21.608,88.095-69.84,99.73-125.874c8.173-39.364-0.254-74.362-22.541-93.62
						C689.385,21.287,671.216,15.354,651.154,15.354z"/>
				</g>
				<g>
					<path style="fill:#FFFFFF;" d="M568.962-6.084c0.154,8.764-2.329,18.018-7.443,26.235c-7.469,12-19.819,22.019-37.757,30.63
						c-6.975,3.349-14.282,6.296-21.35,9.146c-8.011,3.23-16.294,6.57-24.148,10.517c-10.066,5.058-19.7,11.248-29.017,17.234
						c-8.496,5.459-17.282,11.104-26.358,15.864c-15.819,8.297-39.367,16.878-61.704,10.633
						c-23.212-6.489-38.973-27.057-48.106-43.168c-5.271-9.297-9.745-19.225-14.072-28.827
						c-4.669-10.361-9.497-21.075-15.348-31.046c-3.223-5.495-7.247-11.485-12.103-17.217h-1.319
						c5.063,5.878,9.241,12.065,12.56,17.723c5.823,9.925,10.64,20.614,15.298,30.952c4.336,9.622,8.82,19.571,14.114,28.909
						c9.227,16.275,25.167,37.057,48.707,43.638c5.19,1.451,10.686,2.171,16.433,2.171c14.107,0,29.722-4.342,46.005-12.881
						c9.115-4.781,17.919-10.438,26.434-15.908c9.295-5.972,18.906-12.147,28.926-17.182c7.817-3.928,16.081-7.26,24.073-10.483
						c7.082-2.856,14.405-5.809,21.409-9.172c18.113-8.696,30.6-18.837,38.173-31.003c5.212-8.374,7.742-17.812,7.588-26.763
						H568.962z"/>
				</g>
				<g>
					<path style="fill:#FFFFFF;" d="M653.553-6.084c-0.757,1.317-1.669,2.53-2.705,3.551c-4.965,4.894-12.055,6.998-18.31,8.854
						l-42.107,12.497c-2.278,0.676-4.862,1.44-7.349,1.178c-2.205-0.235-4.738-1.537-5.426-3.914
						c-0.627-2.174,0.445-4.466,1.598-6.627c2.804-5.262,5.799-10.446,8.949-15.538h-1.177c-3.041,4.941-5.937,9.968-8.655,15.068
						c-1.193,2.24-2.406,4.842-1.676,7.375c0.816,2.824,3.743,4.361,6.281,4.631c0.385,0.041,0.77,0.06,1.154,0.06
						c2.296,0,4.556-0.671,6.585-1.273L632.823,7.28c6.367-1.89,13.584-4.032,18.726-9.102c1.229-1.211,2.303-2.668,3.152-4.263
						H653.553z"/>
				</g>
				<g>
					<path style="fill:#FFFFFF;" d="M757.832,69.39c-0.34,0.111-0.682,0.212-1.029,0.288c-5.216,1.149-10.333-1.871-13.389-5.079
						c-3.021-3.17-5.12-7.173-7.149-11.045c-0.334-0.635-0.667-1.271-1.003-1.901c-12.765-23.936-32.434-44.158-55.919-57.738
						h-2.005c23.991,13.485,44.091,33.926,57.041,58.208c0.336,0.629,0.667,1.262,1,1.895c2.061,3.933,4.193,7.999,7.311,11.27
						c2.757,2.894,7.118,5.638,11.812,5.638c0.831,0,1.673-0.086,2.517-0.272c0.273-0.06,0.545-0.132,0.814-0.212V69.39z"/>
				</g>
				<g>
					<path style="fill:#FFFFFF;" d="M757.832,390.04c-6.645-16.944-16.309-32.938-28.649-47.181
						c-18.813-21.714-42.516-37.899-68.546-46.806l-0.597-0.204c-5.91-2.017-12.021-4.103-14.982-9.254
						c-3.161-5.501-1.196-12.655,2.152-17.306c3.266-4.533,7.968-7.897,12.515-11.15l1.632-1.172
						c41.987-30.323,71.263-75.372,96.475-118.018v-1.969c-25.358,42.99-54.754,88.623-97.061,119.177l-1.628,1.169
						c-4.613,3.3-9.383,6.713-12.743,11.38c-3.278,4.551-5.824,12.098-2.209,18.388c3.148,5.478,9.725,7.723,15.526,9.702
						l0.596,0.203c44.868,15.352,81.112,51.579,97.519,95.721V390.04z"/>
				</g>
				<g>
					<path style="fill:#CBEAA6;" d="M567.857,245.15c-17.74,0-37.648-4.09-57.836-16.123c-33.199-19.79-48.45-43.63-45.328-70.859
						c2.242-19.553,13.989-39.202,33.077-55.327c14.132-11.94,30.657-21.015,46.639-29.792c3.015-1.656,6.028-3.311,9.025-4.984
						c2.674-1.492,5.344-3.003,8.017-4.516c17.466-9.886,35.527-20.108,55.202-25.153c25.748-6.604,50.683-2.286,66.696,11.551l0,0
						c18.811,16.256,25.938,45.725,19.065,78.829c-9.747,46.942-41.769,87.352-83.57,105.46
						C607.072,239.336,589.006,245.15,567.857,245.15z M640.015,36.361c-7.468,0-15.249,0.988-23.113,3.004
						c-19.546,5.012-37.548,15.201-54.957,25.054c-2.675,1.514-5.347,3.026-8.021,4.519c-3,1.674-6.016,3.33-9.033,4.987
						c-15.938,8.753-32.418,17.804-46.475,29.679c-18.892,15.96-30.515,35.378-32.728,54.677
						c-3.074,26.803,12.015,50.315,44.846,69.885c43.871,26.152,86.443,14.453,107.913,5.151
						c41.508-17.98,73.308-58.116,82.99-104.745c6.798-32.744-0.208-61.854-18.741-77.869
						C671.806,41.294,656.698,36.361,640.015,36.361z"/>
				</g>
				<g>
					<path style="fill:#FFFFFF;" d="M571.223,224.185c-14.188,0-30.113-3.271-46.26-12.896
						c-26.563-15.834-38.763-34.914-36.264-56.712c1.795-15.648,11.192-31.37,26.463-44.269
						c11.299-9.546,24.506-16.799,37.279-23.814c2.408-1.323,4.815-2.645,7.21-3.981c2.136-1.192,4.27-2.399,6.404-3.608
						c13.961-7.902,28.396-16.072,44.13-20.106c20.604-5.283,40.56-1.826,53.378,9.25l0,0
						c15.058,13.012,20.765,36.592,15.266,63.078c-7.794,37.537-33.401,69.85-66.828,84.33
						C602.586,219.535,588.138,224.184,571.223,224.185z M628.876,57.369c-5.958,0-12.168,0.789-18.442,2.398
						c-15.604,4.001-29.982,12.139-43.885,20.008c-2.138,1.21-4.272,2.418-6.409,3.611c-2.397,1.338-4.807,2.661-7.217,3.985
						c-12.731,6.991-25.894,14.22-37.116,23.701c-15.074,12.734-24.348,28.225-26.113,43.62
						c-2.451,21.372,9.588,40.124,35.781,55.738c35.015,20.872,68.991,11.533,86.128,4.109
						c33.134-14.353,58.519-46.393,66.248-83.616c5.424-26.125-0.162-49.347-14.941-62.118l0,0
						C654.227,61.302,642.182,57.369,628.876,57.369z"/>
				</g>
				<g>
					<path style="fill:#FFFFFF;" d="M574.589,203.219c-10.639,0-22.576-2.452-34.684-9.669
						c-19.925-11.877-29.076-26.198-27.199-42.564c1.347-11.742,8.394-23.537,19.848-33.212
						c8.465-7.152,18.354-12.583,27.919-17.836c1.803-0.99,3.604-1.979,5.396-2.979c1.6-0.893,3.197-1.797,4.797-2.702
						c10.454-5.916,21.264-12.034,33.052-15.057c15.461-3.964,30.438-1.366,40.061,6.949c11.304,9.768,15.59,27.46,11.465,47.327
						c-5.842,28.131-25.033,52.349-50.086,63.201C598.1,199.733,587.268,203.219,574.589,203.219z M617.736,78.377
						c-4.449,0-9.085,0.588-13.771,1.79c-11.659,2.99-22.41,9.074-32.808,14.959c-1.601,0.906-3.2,1.811-4.801,2.705
						c-1.795,1.001-3.598,1.992-5.402,2.983c-9.522,5.229-19.366,10.636-27.756,17.723c-11.257,9.51-18.182,21.074-19.498,32.562
						c-1.829,15.94,7.16,29.934,26.717,41.591c26.154,15.59,51.539,8.614,64.342,3.068c24.76-10.725,43.729-34.669,49.506-62.486
						c4.05-19.507-0.115-36.84-11.141-46.367C636.649,81.31,627.663,78.377,617.736,78.377z"/>
				</g>
				<g>
					<path style="fill:#CBEAA6;" d="M577.736,182.333c-7.092,0-14.992-1.656-22.896-6.526c-13.307-7.668-19.41-17.23-18.129-28.413
						c0.898-7.836,5.598-15.704,13.233-22.155c5.632-4.758,12.203-8.367,18.559-11.858c1.196-0.657,2.392-1.314,3.581-1.978
						c1.061-0.592,2.121-1.192,3.183-1.793c6.948-3.933,14.134-7.999,21.981-10.012c10.317-2.644,20.314-0.908,26.743,4.648
						c7.55,6.524,10.415,18.329,7.665,31.576c-3.889,18.726-16.666,34.847-33.344,42.072
						C593.527,179.969,586.209,182.333,577.736,182.333z M606.598,99.385c-2.938,0-6.003,0.389-9.101,1.183
						c-7.719,1.979-14.846,6.013-21.737,9.913c-1.063,0.602-2.124,1.202-3.187,1.796c-1.192,0.665-2.39,1.323-3.588,1.981
						c-6.313,3.467-12.839,7.051-18.396,11.745c-7.439,6.286-12.015,13.923-12.884,21.505c-1.233,10.75,4.705,19.982,17.647,27.44
						c16.971,10.459,33.951,5.761,42.561,2.03c16.386-7.098,28.94-22.945,32.764-41.357c2.675-12.888-0.069-24.333-7.341-30.616l0,0
						C619.071,101.317,613.146,99.385,606.598,99.385z"/>
				</g>
			</g>
		</g>
		<g style="clip-path:url(#SVGID_00000016762515359857619650000012119213464867548602_);">
			<g>
				<path style="fill:#FFFFFF;" d="M78.632,478.988c-6.678-3.916-14.063-6.932-21.205-9.848
					c-12.158-4.964-24.73-10.096-33.674-19.749c-12.136-13.098-15.244-31.747-18.249-49.782
					c-1.745-10.468-3.523-21.136-7.082-30.816v3.062c2.918,8.869,4.522,18.474,6.095,27.918c3.029,18.181,6.162,36.98,18.502,50.298
					c9.094,9.815,21.771,14.99,34.03,19.995c7.11,2.903,14.462,5.904,21.078,9.785c11.758,6.896,20.298,16.324,24.36,26.78h1.077
					C99.476,495.82,90.721,486.079,78.632,478.988z"/>
			</g>
			<g>
				<path style="fill:#CBEAA6;" d="M120.031,499.236c-6.171-14.565-20.317-25.27-32.798-34.714l-0.334-0.253
					c-6.002-4.543-12.479-8.223-18.743-11.781c-10.94-6.215-21.274-12.086-29.038-22.088c-2.406-3.091-4.526-6.496-6.48-10.408
					c-5.158-10.349-8.079-22.32-10.902-33.897c-4.531-18.573-9.211-37.755-23.315-50.073v1.343
					c13.333,12.062,17.719,30.012,22.343,48.966c2.837,11.631,5.771,23.657,10.979,34.107c1.984,3.973,4.138,7.433,6.585,10.576
					c7.887,10.159,18.304,16.077,29.333,22.343c6.236,3.543,12.684,7.206,18.634,11.709l0.334,0.253
					c12.381,9.369,26.414,19.987,32.481,34.309c0.964,2.257,1.673,4.61,2.143,7.004h1.019
					C121.79,504.102,121.048,501.616,120.031,499.236z"/>
			</g>
			<g>
				<path style="fill:#FFFFFF;" d="M139.036,498.824c-0.684-3.265-1.828-6.453-3.4-9.476c-6.001-11.634-17.031-20.491-27.698-29.057
					c-4.33-3.477-8.808-7.073-12.782-10.743c-4.799-4.432-9.75-8.322-14.538-12.084c-9.826-7.721-19.106-15.013-26.135-26.051
					c-1.999-3.123-3.858-6.588-5.683-10.594c-3.784-8.329-6.72-17.483-9.56-26.337c-6.597-20.569-13.419-41.839-31.3-53.354
					c-3.011-1.94-6.219-3.478-9.519-4.724v1.064c3.113,1.2,6.136,2.67,8.978,4.5c17.579,11.322,24.044,31.479,30.889,52.819
					c2.848,8.881,5.794,18.064,9.602,26.446c1.845,4.05,3.727,7.556,5.75,10.718c7.119,11.181,16.465,18.525,26.36,26.299
					c4.772,3.75,9.707,7.628,14.477,12.032c4,3.693,8.491,7.3,12.835,10.788c10.586,8.501,21.531,17.29,27.436,28.737
					c1.531,2.943,2.644,6.045,3.309,9.22c0.519,2.496,0.724,5.046,0.651,7.603h0.998
					C139.78,504.006,139.568,501.388,139.036,498.824z"/>
			</g>
			<g>
				<path style="fill:#FFFFFF;" d="M155.633,490.181c-0.896-3.712-2.374-7.315-4.391-10.71
					c-6.361-10.779-17.102-19.058-27.49-27.064c-7.12-5.487-14.483-11.162-20.348-17.579c-2.246-2.458-4.457-4.819-6.622-7.133
					c-10.606-11.33-19.767-21.115-26.937-35.263c-1.566-3.069-3.119-6.495-4.885-10.78c-1.928-4.696-3.794-9.617-5.6-14.376
					c-9.052-23.858-18.412-48.53-40.43-59.8c-6.345-3.247-13.245-5.109-20.51-6.136v1.014c7.116,1.017,13.864,2.844,20.054,6.012
					c21.675,11.094,30.966,35.582,39.951,59.264c1.808,4.766,3.677,9.692,5.61,14.401c1.777,4.311,3.34,7.761,4.919,10.853
					c7.233,14.273,16.439,24.107,27.098,35.493c2.163,2.311,4.371,4.669,6.614,7.123c5.924,6.482,13.321,12.184,20.476,17.697
					c10.312,7.949,20.976,16.168,27.24,26.782c1.967,3.31,3.406,6.82,4.279,10.435c1.321,5.499,1.18,10.988-0.03,16.217h0.971
					C156.837,501.12,156.912,495.505,155.633,490.181z"/>
			</g>
			<g>
				<path style="fill:#CBEAA6;" d="M172.231,481.539c-1.125-4.222-2.885-8.128-5.38-11.94
					c-6.873-10.552-17.959-18.593-28.682-26.369c-9.571-6.941-19.468-14.119-26.522-23.126
					c-11.677-14.91-19.584-28.861-26.442-46.649c-1.077-2.772-2.129-5.645-3.148-8.423l-0.936-2.55
					c-10.775-29.353-24.435-57.985-51.2-68.653c-9.865-3.93-20.614-5.047-31.501-5.22v1c10.785,0.173,21.417,1.278,31.131,5.15
					c26.401,10.522,39.937,38.933,50.632,68.068l0.936,2.549c1.02,2.783,2.074,5.661,3.154,8.44
					c6.895,17.886,14.846,31.913,26.587,46.906c7.14,9.117,17.094,16.337,26.722,23.318c10.649,7.723,21.659,15.709,28.431,26.105
					c2.436,3.724,4.154,7.535,5.251,11.651c2.274,8.565,1.228,17.093-1.948,24.836h1.079
					C173.531,498.8,174.527,490.19,172.231,481.539z"/>
			</g>
			<g>
				<path style="fill:#FFFFFF;" d="M188.83,472.901c-1.34-4.682-3.423-8.99-6.368-13.171c-7.458-10.612-19.187-18.591-30.53-26.307
					c-11.91-8.102-24.225-16.478-32.044-28.044c-9.46-13.991-13.495-29.1-17.767-45.095c-0.513-1.92-1.029-3.855-1.56-5.807
					c-0.973-3.553-2.043-7.365-3.278-11.167c-10.546-32.551-31.092-55.559-56.368-63.126c-13.604-4.071-28.222-3.75-42.493-3.148
					v1.001c14.2-0.599,28.745-0.923,42.206,3.105c24.957,7.471,45.26,30.242,55.704,62.477c1.229,3.783,2.295,7.581,3.264,11.121
					c0.53,1.949,1.046,3.883,1.559,5.802c4.293,16.079,8.35,31.266,17.904,45.397c7.927,11.725,20.323,20.156,32.31,28.31
					c11.788,8.019,22.922,15.592,30.275,26.056c2.879,4.088,4.916,8.299,6.224,12.871c3.329,11.65,0.719,23.382-5.113,33.455h1.149
					C189.661,496.452,192.183,484.639,188.83,472.901z"/>
			</g>
			<g>
				<path style="fill:#FFFFFF;" d="M205.428,464.265c-5.756-19.046-23.23-30.213-40.129-41.013
					c-14.212-9.082-28.908-18.474-37.175-32.597c-7.043-12.031-8.669-26.303-10.242-40.104c-1.001-8.781-2.035-17.861-4.439-26.409
					c-7.978-28.363-32.706-51.509-61.534-57.594c-14.425-3.045-29.425-2.092-43.932-1.172c-3.145,0.199-6.347,0.4-9.556,0.563v1.001
					c3.232-0.164,6.454-0.366,9.619-0.566c14.439-0.917,29.371-1.864,43.662,1.152c28.474,6.011,52.898,28.871,60.778,56.887
					c2.382,8.47,3.412,17.509,4.408,26.251c1.584,13.904,3.222,28.282,10.372,40.496c8.389,14.33,23.188,23.788,37.5,32.934
					c17.517,11.194,34.062,21.768,39.71,40.459c4.405,14.578-0.193,29.787-9.205,42.078h1.341c1.389-1.934,2.663-3.928,3.801-5.967
					C207.111,488.659,208.894,475.732,205.428,464.265z"/>
			</g>
		</g>
		<g style="clip-path:url(#SVGID_00000016762515359857619650000012119213464867548602_);">
			<path style="fill:#CBEAA6;" d="M267.527,360.516c-10.935-3.348-22.465-5.056-33.616-6.707
				c-13.242-1.962-26.935-3.99-39.606-8.781c-24.662-9.326-45.098-29.563-54.665-54.133c-9.919-25.475-8.326-53.765-6.786-81.124
				c0.208-3.697,0.416-7.384,0.595-11.054c1.476-30.192,0.368-64.461-19.034-89.71c-8.133-10.584-18.988-18.763-29.486-26.672
				c-7.043-5.307-14.326-10.794-20.735-16.965C44.93,46.82,33.171,20.653,31.098-6.084h-1.001
				c2.077,27.004,13.947,53.44,33.405,72.175c6.453,6.213,13.76,11.719,20.827,17.044c10.444,7.869,21.244,16.006,29.294,26.483
				c19.205,24.992,20.295,59.04,18.828,89.051c-0.179,3.667-0.387,7.352-0.595,11.046c-1.546,27.466-3.145,55.866,6.853,81.543
				c9.668,24.83,30.32,45.28,55.243,54.705c12.771,4.829,26.519,6.865,39.813,8.835c11.114,1.646,22.607,3.349,33.47,6.675
				c24.15,7.394,47.175,27.631,44.456,52.005c-1.989,17.833-16.786,31.133-31.771,43.227l-42.437,34.25
				c-4.977,4.017-11.113,8.98-14.012,15.677h1.086c2.874-6.277,8.764-11.034,13.554-14.9l42.437-34.25
				c15.147-12.224,30.105-25.683,32.137-43.893C315.464,388.674,292.071,368.03,267.527,360.516z"/>
		</g>
		<g style="clip-path:url(#SVGID_00000016762515359857619650000012119213464867548602_);">
			<path style="fill:#FFFFFF;" d="M248.004,343.497c-36.846-8.418-74.946-17.123-89.761-42.643c-16.255-28-15.027-63.077-13.838-97
				c1.091-31.164,2.22-63.389-10.012-90.534c-8.54-18.865-25.17-36.076-41.253-52.721C73.266,40.032,52.917,18.97,46.509-6.084
				h-1.05c6.386,25.382,26.913,46.63,46.961,67.379c16.023,16.583,32.592,33.731,41.061,52.438
				c12.136,26.932,11.012,59.039,9.924,90.088c-1.193,34.064-2.427,69.288,13.973,97.537c15.034,25.896,53.35,34.649,90.404,43.116
				c37.495,8.566,72.91,16.658,85.474,40.909c11.63,36.912-15.843,59.439-44.929,83.289c-14.375,11.786-29.051,23.824-39.219,37.961
				h1.247c10.082-13.79,24.488-25.612,38.606-37.187c29.355-24.07,57.083-46.806,45.216-84.442
				C321.366,360.259,285.731,352.117,248.004,343.497z"/>
		</g>
		<g style="clip-path:url(#SVGID_00000016762515359857619650000012119213464867548602_);">
			<path style="fill:#37FF8B;" d="M238.223,441.848c-4.207-11.322-14.961-20.176-31.964-26.314
				c-3.844-1.388-7.83-2.626-11.684-3.823c-9.442-2.934-19.206-5.967-27.548-11.42c-15.736-10.285-26.657-29.074-33.385-57.44
				c-1.299-5.477-2.457-11.117-3.577-16.572c-3.429-16.7-6.975-33.969-15.087-49.21c-11.932-22.418-33.796-39.351-58.485-45.295
				c-19.241-4.633-39.991-2.541-58.072,5.485v1.096c17.975-8.088,38.663-10.227,57.837-5.609
				c24.416,5.878,46.037,22.624,57.837,44.793c8.043,15.112,11.575,32.31,14.99,48.94c1.121,5.462,2.281,11.11,3.584,16.602
				c6.79,28.628,17.85,47.615,33.811,58.048c8.46,5.528,18.29,8.583,27.798,11.537c3.844,1.194,7.818,2.429,11.641,3.81
				c16.713,6.033,27.267,14.688,31.366,25.721c3.5,9.419,2.302,21.141-3.56,34.84c-4.559,10.654-10.82,20.654-18.361,29.596h1.293
				c7.365-8.856,13.497-18.712,17.987-29.204C240.61,463.485,241.814,451.515,238.223,441.848z"/>
		</g>
		<g style="clip-path:url(#SVGID_00000016762515359857619650000012119213464867548602_);">
			<path style="fill:#FFFFFF;" d="M76.877,124.161c-3.274-2.252-6.659-4.582-9.865-6.986C43.937,99.866,26.185,75.27,17.028,47.917
				C11.241,30.634,8.867,12.164,9.914-6.084H8.913c-1.046,18.356,1.346,36.934,7.167,54.319
				c9.221,27.543,27.097,52.311,50.334,69.74c3.222,2.417,6.615,4.752,9.897,7.01c9.064,6.237,18.437,12.687,25.118,21.507
				c8.86,11.699,11.668,30.623,0.753,40.798c-9.689,9.031-24.145,7.3-38.122,5.629c-1.742-0.208-3.467-0.415-5.162-0.597
				c-15.657-1.68-29.217-0.039-40.301,4.878c-8.374,3.715-15.413,9.576-20.176,16.497v1.836
				c4.649-7.318,11.868-13.553,20.581-17.419c10.921-4.846,24.309-6.46,39.789-4.798c1.69,0.182,3.411,0.387,5.149,0.595
				c13.543,1.621,28.894,3.458,38.922-5.89c11.323-10.555,8.485-30.088-0.638-42.133C95.447,136.939,86.007,130.443,76.877,124.161z
				"/>
		</g>
		<g style="clip-path:url(#SVGID_00000016762515359857619650000012119213464867548602_);">
			<path style="fill:#FFFFFF;" d="M84.975,116.623c-9.856-7.616-21.027-16.249-31.408-26.194
				C25.971,63.991,20.739,22.243,20.815-6.084h-1.072c-0.025,5.251,0.13,10.947,0.58,16.911c1.822,24.162,8.948,57.71,32.553,80.323
				c10.419,9.982,21.612,18.632,31.488,26.264c23.907,18.476,42.791,33.069,38.85,55.14c-5.752,32.208-32.04,34.321-54.302,32.558
				c-36.451-2.88-52.187,8.26-67.404,19.036c-1.012,0.716-2.05,1.443-3.086,2.169v1.222c1.235-0.861,2.463-1.725,3.663-2.575
				c15.765-11.164,30.659-21.708,66.747-18.855c22.681,1.794,49.473-0.38,55.366-33.379
				C128.246,150.062,109.15,135.305,84.975,116.623z"/>
		</g>
		<g style="clip-path:url(#SVGID_00000016762515359857619650000012119213464867548602_);">
			<path style="fill:#37FF8B;" d="M59.678,132.835c-4.655-4.305-10.321-7.375-15.8-10.342c-2.116-1.146-4.304-2.332-6.397-3.569
				C20.288,108.762,6.554,92.679-1.579,74.251v2.411c8.313,17.774,21.809,33.228,38.551,43.122c2.109,1.247,4.306,2.436,6.43,3.587
				c5.425,2.938,11.035,5.977,15.598,10.197c5.946,5.499,10.592,14.706,7.567,22.88c-3.422,9.248-14.808,12.796-23.519,13.024
				c-3.844,0.104-7.775-0.207-11.578-0.505c-5.781-0.453-11.759-0.921-17.592,0.03c-5.863,0.958-11.735,4.007-15.457,8.39v1.597
				c3.472-4.704,9.549-8.009,15.618-9c5.712-0.933,11.629-0.469,17.353-0.021c3.827,0.3,7.786,0.61,11.682,0.508
				c9.455-0.248,20.838-3.972,24.43-13.678C70.689,148.189,65.868,138.56,59.678,132.835z"/>
		</g>
		<g style="clip-path:url(#SVGID_00000016762515359857619650000012119213464867548602_);">
			<path style="fill:#FFFFFF;" d="M374.458,379.012c-7.7,0-15.341-3.444-21.213-6.091l-35.905-16.185
				c-2.683-1.209-5.191-2.495-6.406-4.922c-1.841-3.681,0.407-8.164,3.644-10.372c2.889-1.971,6.384-2.64,9.764-3.286l1.093-0.21
				c28.818-5.654,54.616-24.313,69.01-49.913c1.291-2.296,2.537-4.714,3.743-7.053c4.401-8.534,8.952-17.359,16.868-22.866
				c6.668-4.639,15.492-5.979,24.198-3.679c8.712,2.301,15.72,7.821,19.228,15.147c6.002,12.536-2.035,21.921-11.341,32.788
				c-1.329,1.552-2.686,3.135-4.042,4.772l0.009,0.007l-41.561,53.501c-6.344,8.167-12.79,15.673-21.878,17.785
				C377.943,378.836,376.198,379.012,374.458,379.012z M430.913,254.333c-5.603,0-10.926,1.568-15.286,4.601
				c-7.711,5.365-12.204,14.078-16.55,22.504c-1.21,2.347-2.461,4.773-3.761,7.085c-14.534,25.852-40.586,44.694-69.688,50.403
				l-1.098,0.212c-3.28,0.628-6.671,1.276-9.388,3.13c-2.82,1.924-4.889,5.949-3.313,9.099c1.067,2.133,3.41,3.325,5.922,4.457
				l35.905,16.186c7.07,3.187,16.753,7.554,25.787,5.451c8.768-2.037,15.086-9.404,21.315-17.424l38.968-50.164l-0.071-0.058
				c2.238-2.855,4.52-5.519,6.727-8.095c9.453-11.038,16.92-19.757,11.198-31.706l0,0c-3.381-7.061-10.153-12.387-18.58-14.612
				C436.29,254.686,433.569,254.333,430.913,254.333z"/>
		</g>
		<g style="clip-path:url(#SVGID_00000016762515359857619650000012119213464867548602_);">
			<path style="fill:#37FF8B;" d="M533.88-6.084c4.733,5.897,7.622,13.261,6.679,21.115c-1.795,14.946-16.427,25.055-29.521,29.531
				c-5.94,2.031-12.202,3.437-18.259,4.796c-8.268,1.856-16.816,3.775-24.682,7.312c-9.021,4.056-17.009,10.178-24.734,16.098
				c-6.759,5.18-13.748,10.536-21.39,14.474c-25.812,13.304-59.032,9.156-80.782-10.086c-17.857-15.799-26.587-39.06-35.03-61.555
				c-1.331-3.547-2.658-7.082-4.014-10.575c-1.37-3.527-2.898-7.27-4.61-11.109h-1.098c1.779,3.965,3.363,7.834,4.775,11.471
				c1.355,3.489,2.681,7.02,4.011,10.564c8.485,22.609,17.26,45.989,35.303,61.952c13.419,11.872,31.141,18.076,48.859,18.076
				c11.399,0,22.799-2.569,33.045-7.85c7.72-3.979,14.745-9.362,21.539-14.568c7.681-5.886,15.622-11.971,24.536-15.979
				c7.772-3.495,16.272-5.403,24.49-7.248c6.083-1.365,12.373-2.777,18.364-4.825c13.382-4.575,28.34-14.953,30.189-30.358
				c0.944-7.864-1.807-15.248-6.403-21.234H533.88z"/>
			<path style="fill:#37FF8B;" d="M404.024,4.204c7.771-2.523,15.593-5.357,23.157-8.098c2.012-0.729,4.033-1.461,6.061-2.19h-2.948
				c-1.154,0.417-2.306,0.834-3.454,1.25c-7.557,2.738-15.371,5.569-23.125,8.087c-16.104,5.228-34.986,9.972-52.93,5.524
				c-10.555-2.617-19.815-8.1-28.388-14.861h-1.605c8.94,7.194,18.618,13.071,29.753,15.832
				C368.732,14.256,387.786,9.476,404.024,4.204z"/>
		</g>
		<g style="clip-path:url(#SVGID_00000016762515359857619650000012119213464867548602_);">
			<g>
				<path style="fill:#FFFFFF;" d="M429.031,133.439c-0.769-2.216-2.116-4.158-4.335-5.092c-2.121-0.893-4.528-0.73-6.723-0.22
					c-2.755,0.64-5.38,1.861-7.829,3.252c-2.115,1.201-4.008,2.885-6.22,3.891c-3.541,1.611-7.657,1.768-11.462,2.217
					c-3.323,0.392-7.178,0.746-9.921,2.867c-3.717,2.876-2.699,7.945-1.317,11.787c0.368-0.101,0.736-0.203,1.104-0.304
					c-0.01-0.026-0.02-0.052-0.03-0.077c-0.261-0.671-1.33-0.412-1.104,0.304c1.216,3.847,2.615,7.653,4.386,11.282
					c0.28,0.575,1.282,0.167,1.046-0.441c-0.005-0.014-0.011-0.027-0.016-0.041c-0.349,0.147-0.697,0.294-1.046,0.441
					c4.488,7.778,9.838,15.996,17.408,21.127c4.172,2.828,9.372,4.435,14.249,2.488c4.686-1.871,7.913-6.21,10.047-10.617
					c2.825-5.835,4.172-12.348,4.627-18.785C432.465,149.423,431.565,141.158,429.031,133.439c-0.229-0.697-1.334-0.398-1.104,0.304
					c4.082,12.434,4.281,27.012-0.484,39.299c-1.773,4.572-4.505,9.32-8.823,11.912c-4.231,2.54-9.094,1.933-13.276-0.4
					c-3.429-1.914-6.336-4.673-8.916-7.602c-3.822-4.341-6.993-9.225-9.877-14.225c-0.313-0.543-1.287-0.179-1.046,0.441
					c0.005,0.014,0.01,0.027,0.016,0.041c0.349-0.147,0.697-0.294,1.046-0.441c-1.729-3.541-3.084-7.255-4.271-11.009
					c-0.368,0.101-0.736,0.203-1.104,0.304c0.01,0.026,0.02,0.052,0.03,0.077c0.262,0.675,1.356,0.396,1.104-0.304
					c-1.161-3.227-2.366-7.742,0.642-10.363c2.378-2.072,6.059-2.425,9.052-2.789c3.505-0.426,7.113-0.629,10.505-1.677
					c1.69-0.522,3.094-1.325,4.537-2.329c2.182-1.518,4.488-2.887,6.919-3.97c2.54-1.132,5.436-2.095,8.255-1.81
					c2.871,0.29,4.771,2.19,5.692,4.845C428.168,134.435,429.274,134.137,429.031,133.439z"/>
			</g>
		</g>
		<g style="clip-path:url(#SVGID_00000016762515359857619650000012119213464867548602_);">
			<path style="fill:#FFFFFF;" d="M374.73,78.099c-0.872-0.186-1.727-0.385-2.564-0.595c-1.859-0.238-3.708-0.552-5.544-0.941
				l0.141-0.664c-7.523-2.617-13.317-6.394-17.28-11.276c-5.882-7.247-7.943-19.39-1.21-27.168
				c6.055-6.996,16.327-7.734,25.39-8.386l2.071-0.152c12.891-0.98,25.563-3.775,37.668-8.308l1.04-0.391
				c7.135-2.685,15.222-5.728,22.253-2.439c7.076,3.311,9.816,11.912,8.863,18.697c-0.875,6.243-4.266,12.397-10.366,18.815
				c-15.311,16.109-38.298,24.494-60.395,22.5L374.73,78.099z M372.352,76.52c22.551,2.873,46.421-5.41,62.114-21.917
				c5.951-6.262,9.256-12.237,10.101-18.266c0.901-6.422-1.659-14.547-8.297-17.652c-6.652-3.114-14.527-0.147-21.477,2.469
				l-1.041,0.391c-12.193,4.566-24.959,7.382-37.943,8.369l-2.075,0.152c-9.303,0.669-18.922,1.361-24.706,8.043
				c-6.39,7.382-4.392,18.958,1.23,25.884C354.976,69.802,362.4,74.01,372.352,76.52z"/>
		</g>
		<g style="clip-path:url(#SVGID_00000016762515359857619650000012119213464867548602_);">
			<g>
				<path style="fill:#FFFFFF;" d="M269.443,435.624c-4.407,0-10.249-2.859-17.191-12.868
					c-10.807-13.059-22.807-15.552-34.412-17.963c-9.065-1.883-17.628-3.662-25.109-10.286c-6.18-6.302-6.739-13.636-4.564-18.119
					c1.602-3.299,4.63-5.043,8.097-4.664l7.224,1.14c7.644,0.54,16.5-0.156,25.878-0.893c25.32-1.99,51.507-4.048,56.771,18.579
					c3.59,15.429-1.609,39.328-12.57,44.19C272.382,435.267,271.002,435.624,269.443,435.624z M195.306,372.669
					c-2.689,0-4.941,1.48-6.239,4.155c-2.023,4.168-1.462,11.028,4.352,16.959c7.256,6.423,15.692,8.176,24.624,10.031
					c11.773,2.446,23.948,4.975,35.004,18.338c7.158,10.314,14.105,14.338,20.115,11.674c10.561-4.686,15.509-27.977,12.002-43.05
					c-5.07-21.788-30.819-19.766-55.719-17.809c-9.416,0.738-18.311,1.438-26.07,0.889l-7.243-1.142
					C195.853,372.685,195.577,372.669,195.306,372.669z"/>
			</g>
		</g>
		<g style="clip-path:url(#SVGID_00000016762515359857619650000012119213464867548602_);">
			<path style="fill:#FFFFFF;" d="M113.019,254.27c-4.895,0.001-7.943-5.267-10.413-9.534l-0.364-0.627
				c-6.791-11.68-18.091-24.873-33.348-21.403l-0.004,0.001c-5.001,1.093-8.236,0.364-9.613-2.161
				c-0.657-1.206-0.681-2.639-0.067-4.037c0.828-1.886,2.657-3.427,4.661-3.928c2.804-0.698,5.656-0.006,8.414,0.665
				c0.461,0.112,0.92,0.224,1.377,0.328c9.807,2.244,20.248,1.182,29.402-2.993c3.309-1.51,10.195-4.648,13.527-0.401
				c1.203,1.532,1.428,3.573,1.609,5.213l2.54,22.942c0.33,2.979,0.703,6.356-0.22,9.491c-0.869,2.951-3.321,6.079-6.839,6.413
				C113.458,254.26,113.236,254.27,113.019,254.27z M73.847,221.138c13.225,0,23.08,11.842,29.259,22.468l0.365,0.629
				c2.563,4.428,5.473,9.464,10.116,9.008c3.053-0.289,5.201-3.071,5.975-5.699c0.866-2.942,0.504-6.213,0.185-9.099l-2.541-22.943
				c-0.167-1.514-0.375-3.397-1.402-4.705c-2.501-3.189-7.401-1.551-12.325,0.694c-9.351,4.265-20.02,5.352-30.039,3.058
				c-0.462-0.105-0.925-0.218-1.39-0.331c-2.642-0.643-5.373-1.306-7.937-0.666c-1.688,0.421-3.291,1.771-3.988,3.359
				c-0.344,0.784-0.618,1.968,0.03,3.157c1.138,2.088,4.004,2.647,8.52,1.663C70.452,221.327,72.177,221.138,73.847,221.138z"/>
		</g>
		<g style="clip-path:url(#SVGID_00000016762515359857619650000012119213464867548602_);">
			<path style="fill:#37FF8B;" d="M363.029,361.52c-4.291,0-8.708-1.822-11.727-4.884c-2.483-2.52-3.712-5.638-3.461-8.781
				c0.671-8.386,9.986-12.519,17.471-15.839l0.278-0.123c17.274-7.668,32.235-20.759,42.128-36.861
				c0.826-1.345,1.62-2.712,2.414-4.079c2.065-3.555,4.199-7.23,6.894-10.442c4.339-5.174,9.601-8.223,14.813-8.585
				c3.581-0.248,6.996,1.074,8.916,3.455c1.237,1.533,2.457,4.241,1.24,8.434l-0.019,0.052
				c-8.975,21.646-35.551,48.892-57.43,67.172c-5.721,4.78-12.499,9.925-20.546,10.451
				C363.679,361.51,363.354,361.52,363.029,361.52z M432.702,272.896c-0.263,0-0.527,0.009-0.793,0.027
				c-6.665,0.463-11.706,5.354-14.117,8.229c-2.639,3.146-4.751,6.784-6.794,10.302c-0.799,1.374-1.597,2.749-2.428,4.101
				c-9.996,16.273-25.116,29.503-42.574,37.252l-0.278,0.124c-7.242,3.212-16.255,7.211-16.879,15.004
				c-0.293,3.651,1.566,6.365,3.176,7.999c3.003,3.046,7.682,4.843,11.922,4.557c7.747-0.507,14.37-5.541,19.97-10.221
				c21.778-18.196,48.22-45.287,57.136-66.762c0.858-2.98,0.49-5.572-1.066-7.5C438.4,274.052,435.663,272.896,432.702,272.896z"/>
		</g>
		<g style="clip-path:url(#SVGID_00000016762515359857619650000012119213464867548602_);">
			<path style="fill:#CBEAA6;" d="M757.832,342.622c-4.295-1.983-7.725-5.042-9.818-7.244c-3.055-3.211-5.687-6.897-8.232-10.462
				c-1.745-2.445-3.551-4.974-5.486-7.342c-8.228-10.07-19.539-17.934-31.847-22.139c-1.745-0.597-3.54-1.133-5.276-1.651
				c-3.617-1.08-7.357-2.196-10.766-3.9c-5.744-2.871-9.642-7.243-10.692-11.996c-1.075-4.855,0.763-10.615,4.914-15.408
				c3.106-3.586,7.093-6.399,10.949-9.119c0.774-0.547,1.549-1.094,2.316-1.646c12.805-9.214,24.017-20.342,33.323-33.077
				c0.714-0.976,1.423-1.967,2.134-2.961c4.835-6.76,9.834-13.75,17.252-17.196c3.354-1.558,7.455-1.917,11.229-1.122v-1.012
				c-3.928-0.782-8.169-0.391-11.651,1.226c-7.656,3.558-12.733,10.657-17.644,17.522c-0.709,0.992-1.416,1.98-2.127,2.953
				c-9.245,12.649-20.382,23.703-33.101,32.855c-0.765,0.55-1.537,1.095-2.31,1.64c-3.904,2.755-7.942,5.604-11.128,9.282
				c-4.357,5.03-6.277,11.116-5.135,16.279c1.117,5.048,5.207,9.668,11.222,12.674c3.485,1.742,7.268,2.872,10.927,3.964
				c1.727,0.517,3.513,1.05,5.238,1.64c12.135,4.146,23.285,11.897,31.396,21.825c1.915,2.344,3.711,4.858,5.447,7.29
				c2.565,3.593,5.218,7.308,8.321,10.57c2.223,2.338,5.904,5.617,10.543,7.659V342.622z"/>
		</g>
	</g>
</g>
</svg>
